<svg xmlns="http://www.w3.org/2000/svg" width="59" height="28" fill="none">
  <g clip-path="url(#a)">
    <path fill="#fff" d="M44.756 25.306a.9.9 0 0 0-.335.166c-.514.35-1.126.53-1.75.516a3.05 3.05 0 0 1-1.711-.874l-.73-.611-.182-.155-1.117-.952q-.48-.375-1.69-1.17a9.3 9.3 0 0 0 1.547-.538c.455-.205.89-.454 1.296-.743a9.23 9.23 0 0 0 2.986-3.965 14.2 14.2 0 0 0 1.083-5.135c.006-.185.008-.368.008-.56q0-4.846-2.357-7.884A7.66 7.66 0 0 0 35.32.369a7.64 7.64 0 0 0-6.161 3.634 13.6 13.6 0 0 0-1.955 7.45q-.001.196.004.387a12.1 12.1 0 0 0 3.549 8.643 2.6 2.6 0 0 0-.898.854l-.41-.109a4.08 4.08 0 0 1-2.17-1.654l-5.747-7.737-.502-.676a1.17 1.17 0 0 1-.288-.65 1 1 0 0 1 .275-.495l4.1-4.784q3.06-3.544 4.143-3.9a.63.63 0 0 0 .575-.415.3.3 0 0 0-.102-.233.3.3 0 0 0-.246-.072q-.189.014-.372.062-.496.063-.997.048l-.902.016-1.108-.042q-.567.003-1.13-.056a3 3 0 0 0-.324-.028.3.3 0 0 0-.264.064.3.3 0 0 0-.108.247q0 .28.544.384c.485.034.861.431.865.912a3.86 3.86 0 0 1-1.19 2.179l-5.148 5.95-.18.186-.192.17q-.106 0-.107-.327v-6.06a7.2 7.2 0 0 1 .2-2.119c.194-.422.535-.76.96-.954a.43.43 0 0 0 .29-.353.24.24 0 0 0-.07-.216.25.25 0 0 0-.22-.064 6 6 0 0 0-.577.079q-.267.02-.625.02l-.903.04-.447.02a12.6 12.6 0 0 1-1.927-.105 2 2 0 0 0-.435-.053.29.29 0 0 0-.243.077.28.28 0 0 0-.083.239c.014.166.145.3.313.317l.59.154c.474.106.868.432 1.057.876a6.7 6.7 0 0 1 .277 2.32V17.79a9 9 0 0 1-.297 2.763q-.06.168-.15.322a1.4 1.4 0 0 1-.335-.285 8.4 8.4 0 0 1-.933-2.322l-.264-.834-1.701-5.59L9.884.458a.49.49 0 0 0-.32-.447.54.54 0 0 0-.344.464L5.237 11.844l-2.185 6.227-.344 1.018a7.6 7.6 0 0 1-.67 1.364c-.146.301-.37.559-.647.748l-.447.17a.32.32 0 0 0-.204.314v.026a.27.27 0 0 0 .086.227c.064.058.151.083.236.068q.06 0 .67-.102.27-.029.54-.025.752 0 1.324.032l1.147.08q.276.015.407.015.345 0 .335-.262l-.007-.054a.43.43 0 0 0-.367-.316 2.3 2.3 0 0 1-1.116-.554 1.57 1.57 0 0 1-.283-1.045c.063-.792.244-1.57.538-2.308l.795-2.26c.112-.443.307-.86.575-1.231.343-.165.726-.23 1.104-.185h4.342c.28-.035.564.01.819.13.19.301.324.633.396.98l.604 2.034c.37 1.053.617 2.144.736 3.252a.92.92 0 0 1-.604 1.048l-.372.108a.336.336 0 0 0-.298.331v.016a.28.28 0 0 0 .078.234.28.28 0 0 0 .234.082q.189-.01.372-.063a13 13 0 0 1 2.084-.095c.575 0 1.098-.006 1.524-.005.313.012 3.482.141 3.734.18q.48.059.649.079a.25.25 0 0 0 .228-.072.24.24 0 0 0 .06-.228.3.3 0 0 0-.023-.112.44.44 0 0 0-.334-.22 2.62 2.62 0 0 1-1.702-.849 4.86 4.86 0 0 1-.373-2.345v-5.65q0-.355.224-.355c.12.01.228.072.297.17l.23.339 6.437 8.532.204.289q.037.046.07.086a.82.82 0 0 0 .636.316q.192 0 .55-.033.323-.03 1.042-.03c.438 0 .744.008.927.025l-.032.067a5.85 5.85 0 0 0-.61 2.35v.117a.31.31 0 0 0 .059.258.32.32 0 0 0 .239.12.37.37 0 0 0 .264-.378q.017-.081.03-.179c.068-.671.326-1.31.745-1.842a1.73 1.73 0 0 1 1.34-.76c.97.176 1.877.596 2.634 1.221l2.01 1.375.256.185q.506.369 1.801 1.344a6 6 0 0 0 3.389 1.467 4.76 4.76 0 0 0 2.222-.611q1.155-.611 1.131-1.17a.2.2 0 0 0-.052-.165.2.2 0 0 0-.165-.058M10.733 12.303H7.11l-.324-.015q-.553 0-.553-.4 0-.023.004-.044.051-.269.153-.523l2.34-6.655a.35.35 0 0 1 .191-.295c.183.106.3.297.312.507l.096.323 1.883 6.086.06.277q.036.138.056.279l.003.073q.002.388-.598.387m18.435-.459a20 20 0 0 1-.074-1.761 11.23 11.23 0 0 1 1.637-6.363 4.94 4.94 0 0 1 4.259-2.444q3.106 0 5.276 3.354a14.2 14.2 0 0 1 2.151 7.214q.022.461.022.938a10.9 10.9 0 0 1-1.629 6.261 4.97 4.97 0 0 1-4.277 2.39 6.07 6.07 0 0 1-4.658-2.421 12.33 12.33 0 0 1-2.707-7.168m29.13 9.84a.376.376 0 0 0-.358-.376 2.74 2.74 0 0 1-1.508-.718 8.3 8.3 0 0 1-.935-2.322l-.265-.834-1.701-5.59L50.066.458a.49.49 0 0 0-.32-.447.54.54 0 0 0-.343.463l-3.984 11.37-2.182 6.227-.349 1.018a7.6 7.6 0 0 1-.67 1.364 1.9 1.9 0 0 1-.647.748l-.447.17a.32.32 0 0 0-.202.314v.026a.27.27 0 0 0 .087.227c.063.058.15.083.236.068q.06 0 .67-.102.268-.03.537-.025.752 0 1.326.032l1.147.08q.276.015.407.015.347 0 .335-.262a.3.3 0 0 0-.006-.054.43.43 0 0 0-.367-.316 2.34 2.34 0 0 1-1.116-.554 1.58 1.58 0 0 1-.282-1.045 8 8 0 0 1 .537-2.308l.795-2.26c.112-.443.307-.86.576-1.231a2 2 0 0 1 1.103-.185h4.343c.28-.035.562.01.816.13.19.3.324.632.395.98l.608 2.03c.37 1.054.616 2.145.734 3.253a.92.92 0 0 1-.602 1.048l-.372.108a.336.336 0 0 0-.298.331v.016a.28.28 0 0 0 .077.233c.06.062.147.093.234.083q.189-.012.372-.064a13 13 0 0 1 2.084-.095q1.594 0 2.216.068.349.028.457.028c.079.018.162 0 .226-.05a.27.27 0 0 0 .108-.203zm-7.383-9.38H47.29l-.323-.016q-.552 0-.553-.4 0-.021.004-.043.051-.27.153-.523l2.34-6.656a.35.35 0 0 1 .19-.294c.184.106.301.296.312.507l.097.322 1.882 6.087.06.277q.036.137.055.278a1 1 0 0 1 .006.074q.002.386-.598.386"/>
  </g>
  <defs>
    <clipPath id="a">
      <path fill="#fff" d="M0 0h58.8v28H0z"/>
    </clipPath>
  </defs>
</svg>