<svg xmlns="http://www.w3.org/2000/svg" width="101" height="28" fill="none">
  <g clip-path="url(#a)">
    <path fill="#fff" fill-rule="evenodd" d="M51.84 13.105c.016.284.032.585.032.886 0 2.895-1.12 5.522-2.961 7.396-1.84 1.908-4.401 3.08-7.296 3.08-1.874 0-3.63-.452-5.12-1.239a9.96 9.96 0 0 1-3.681-3.28 10.5 10.5 0 0 1-3.715 3.297c-1.49.786-3.213 1.221-5.087 1.221-1.606 0-3.096-.334-4.434-.937a10.5 10.5 0 0 1-3.48-2.543 6 6 0 0 1-2.276 2.209c-.971.535-2.142.853-3.447.853H0V3.901h9.421c1.506 0 2.844.402 3.899 1.105 1.054.686 1.823 1.673 2.192 2.828a10.7 10.7 0 0 1 3.68-3.163 10.7 10.7 0 0 1 4.97-1.205c1.172 0 2.293.15 3.314.452a9.6 9.6 0 0 1 2.794 1.339l-1.104 1.74-1.105 1.74a5.9 5.9 0 0 0-1.79-.92 7.7 7.7 0 0 0-2.125-.335c-1.84.017-3.48.77-4.669 1.958s-1.924 2.794-1.924 4.518c0 1.757.736 3.38 1.924 4.568 1.205 1.188 2.845 1.941 4.669 1.941.887 0 1.707-.167 2.476-.485.77-.318 1.456-.803 2.092-1.44 1.36-1.344 1.705-2.995 2.085-4.81q.068-.328.14-.66c.436-2.06 1.071-4.318 3.297-6.544a10.2 10.2 0 0 1 3.313-2.208c1.255-.519 2.677-.803 4.25-.803 1.172 0 2.293.15 3.313.468a9.5 9.5 0 0 1 2.811 1.355l-1.087 1.74-1.088 1.74a6.2 6.2 0 0 0-1.807-.953 6.5 6.5 0 0 0-2.159-.351c-1.773 0-3.38.736-4.534 1.907a6.4 6.4 0 0 0-1.874 4.535c0 1.79.703 3.414 1.857 4.602 1.155 1.188 2.728 1.924 4.501 1.924 1.423 0 2.644-.469 3.615-1.238.97-.77 1.69-1.858 2.058-3.13H41.13l1.238-1.94 1.238-1.942h8.133q.016.135.035.275c.027.2.054.401.065.596M4.366 7.666v4.401h4.97c.62 0 1.188-.234 1.59-.636.401-.385.652-.937.652-1.573s-.25-1.188-.652-1.573a2.27 2.27 0 0 0-1.59-.619zm0 8.082v4.585h5.957c.67 0 1.255-.25 1.69-.67.435-.417.703-.986.703-1.639 0-.652-.268-1.221-.703-1.623a2.47 2.47 0 0 0-1.69-.653zm57.444 5.991c0-.05 0-.1-.017-.134l-1.79-.05-.201.318-.201.318h1.523c-.067.351-.218.67-.469.887-.25.217-.586.351-1.004.351-.452 0-.837-.184-1.121-.485a1.72 1.72 0 0 1-.452-1.188c0-.486.184-.904.469-1.188a1.6 1.6 0 0 1 1.137-.469c.201 0 .385.034.553.084.167.05.334.134.485.25l.184-.284.184-.284a2 2 0 0 0-.653-.318 2.7 2.7 0 0 0-.753-.1 2.34 2.34 0 0 0-2.342 2.342c0 .653.25 1.238.67 1.657a2.26 2.26 0 0 0 1.64.686c.635 0 1.187-.234 1.572-.636s.602-.954.602-1.59a1 1 0 0 0-.008-.083 1 1 0 0 1-.008-.084m9.22 1.74a2.4 2.4 0 0 1-1.674.686 2.34 2.34 0 0 1-1.656-.686 2.33 2.33 0 0 1-.686-1.64c0-.636.267-1.221.686-1.64a2.34 2.34 0 0 1 1.656-.686 2.38 2.38 0 0 1 1.674.686 2.33 2.33 0 0 1 .686 1.64 2.33 2.33 0 0 1-.686 1.64m2.376-1.138v-2.744h-.72v2.744c0 .536.2.988.536 1.306.334.318.786.518 1.322.518.535 0 .987-.2 1.321-.518.318-.335.52-.787.52-1.306v-2.744h-.704v2.744c0 .318-.117.62-.318.82-.2.201-.485.335-.82.335s-.619-.134-.82-.335c-.2-.2-.317-.502-.317-.82m-7.647-2.326c-.268-.267-.653-.418-1.122-.418h-1.807v4.468h.72v-1.607h.853l.502.804.502.803h.837l-.536-.854-.535-.853c.318-.067.569-.234.736-.468s.268-.52.268-.854c0-.401-.15-.77-.418-1.02m14.808 0a1.7 1.7 0 0 0-1.137-.418h-1.74v4.468h.719v-1.556h1.02c.47 0 .87-.15 1.138-.419.268-.267.419-.636.419-1.037 0-.418-.15-.77-.419-1.038M68.22 23.011c.285.3.687.485 1.138.485.469 0 .87-.184 1.155-.485.284-.285.468-.703.468-1.172 0-.451-.184-.87-.468-1.17a1.62 1.62 0 0 0-1.155-.486 1.58 1.58 0 0 0-1.138.485c-.284.301-.468.72-.468 1.171s.184.87.468 1.172m11.797-1.356a.87.87 0 0 1-.585.218H78.41v-1.607h1.02a.87.87 0 0 1 .586.218.78.78 0 0 1 .234.586c0 .25-.083.451-.234.585m-14.809-.05a.82.82 0 0 1-.569.2h-1.087V20.25h1.087c.235 0 .436.083.57.217a.8.8 0 0 1 .217.57.77.77 0 0 1-.218.568m35.173-7.697c0-.05 0-.1-.016-.134l-1.79-.033-.202.318-.2.317h1.522c-.067.352-.217.67-.468.887-.251.218-.586.352-1.004.352-.452 0-.837-.184-1.121-.486a1.71 1.71 0 0 1-.452-1.188c0-.468.184-.886.468-1.188a1.6 1.6 0 0 1 1.138-.468c.201 0 .385.033.553.083.167.05.334.134.485.252l.184-.285.184-.285c-.2-.15-.418-.25-.653-.317a2.7 2.7 0 0 0-.753-.1c-.652 0-1.238.267-1.656.685a2.27 2.27 0 0 0-.686 1.657c0 .652.25 1.238.669 1.656.418.436.987.686 1.64.686.636 0 1.188-.25 1.573-.652s.602-.954.602-1.59q-.001-.039-.008-.083-.008-.046-.009-.084m-23.125.602v-2.744h-.72v2.744c0 .536.202.988.536 1.306.335.317.787.518 1.322.518.536 0 .987-.2 1.322-.518.318-.335.519-.787.519-1.306v-2.744h-.703v2.744c0 .318-.117.62-.318.82-.2.201-.485.335-.82.335s-.619-.134-.82-.335c-.2-.2-.318-.502-.318-.82m-2.175 1.44c-.268.234-.653.384-1.155.384-.351 0-.652-.067-.903-.167a2.8 2.8 0 0 1-.67-.368l.184-.285.185-.284c.184.117.385.217.585.301.201.067.402.117.636.117.285 0 .502-.067.636-.184a.57.57 0 0 0 .218-.468c0-.218-.1-.352-.268-.452s-.419-.184-.703-.268c-.351-.1-.686-.217-.937-.402-.251-.184-.418-.451-.418-.886 0-.385.15-.72.401-.954.251-.235.636-.368 1.105-.368.267 0 .502.05.736.117q.326.1.602.301l-.184.284-.184.285a1.8 1.8 0 0 0-.502-.251 1.8 1.8 0 0 0-.502-.084c-.268 0-.452.067-.585.184a.62.62 0 0 0-.185.452c0 .218.1.351.268.452.153.107.376.172.63.247l.073.02.084.029c.32.106.622.205.853.39.251.184.418.468.418.887 0 .385-.15.72-.418.97m-9.237-.302a2.4 2.4 0 0 1-1.673.686 2.34 2.34 0 0 1-1.657-.686 2.33 2.33 0 0 1-.686-1.64 2.34 2.34 0 0 1 2.343-2.342 2.4 2.4 0 0 1 1.673.686 2.4 2.4 0 0 1 .686 1.656c0 .636-.267 1.222-.686 1.64m-7.83.017a2.34 2.34 0 0 1 1.69-4c.317 0 .585.05.836.135.25.083.468.217.67.368l-.185.284-.184.285a1.78 1.78 0 0 0-1.155-.402c-.434 0-.836.184-1.12.485-.302.301-.47.72-.47 1.188 0 .469.185.887.47 1.188.284.302.686.486 1.12.486.218 0 .436-.034.62-.1a1.9 1.9 0 0 0 .535-.302l.184.285.184.284a2.2 2.2 0 0 1-.67.368 2.6 2.6 0 0 1-.836.134 2.42 2.42 0 0 1-1.69-.686m30.905.569h.72v-4.468h-.72zm2.31 0h.669v-3.447l1.07 1.723 1.072 1.724h.836v-4.468h-.686v3.38l-1.037-1.69-1.038-1.69h-.887zm-4.803-3.799h1.406v-.669H84.3v.67h1.389v3.798h.736zm-1.991 3.13h-2.209v-3.799h-.72v4.468h2.929zm-16.884.669h.67v-3.447l1.07 1.723 1.071 1.724h.837v-4.468h-.686v3.38l-1.038-1.69-1.037-1.69h-.887zm-4.518-1.054c.285.3.686.485 1.138.485s.853-.184 1.155-.485c.284-.285.468-.703.468-1.172 0-.451-.184-.87-.468-1.171a1.62 1.62 0 0 0-1.155-.485 1.58 1.58 0 0 0-1.138.485 1.66 1.66 0 0 0-.468 1.171c0 .452.184.87.468 1.172M78.945 7.8a2.4 2.4 0 0 1-1.673.686 2.27 2.27 0 0 1-1.657-.686 2.33 2.33 0 0 1-.686-1.64 2.34 2.34 0 0 1 2.343-2.342c.67 0 1.255.268 1.673.686a2.4 2.4 0 0 1 .686 1.657 2.33 2.33 0 0 1-.686 1.64m-9.12.302c-.267.25-.652.384-1.154.384-.351 0-.652-.05-.903-.167a2.8 2.8 0 0 1-.67-.368l.184-.285.184-.284c.184.117.385.218.586.301.2.067.402.117.636.117.284 0 .502-.067.636-.184a.57.57 0 0 0 .217-.468c0-.218-.1-.352-.267-.452-.168-.1-.419-.184-.703-.268-.352-.1-.686-.217-.937-.401s-.419-.452-.419-.887c0-.385.151-.72.402-.954s.636-.368 1.104-.368c.268 0 .502.05.737.117q.326.1.602.301l-.184.285-.184.284a1.8 1.8 0 0 0-.502-.25 1.8 1.8 0 0 0-.502-.085c-.268 0-.452.067-.586.185a.62.62 0 0 0-.184.451c0 .218.1.352.268.452.153.107.376.172.63.247l.073.02c.351.118.686.235.937.42.25.183.418.468.418.886 0 .385-.15.72-.418.97M65.71 7.8a2.4 2.4 0 0 1-1.673.686A2.27 2.27 0 0 1 62.38 7.8a2.33 2.33 0 0 1-.687-1.64 2.34 2.34 0 0 1 2.343-2.342c.67 0 1.255.268 1.673.686a2.4 2.4 0 0 1 .686 1.657c0 .635-.267 1.221-.686 1.64m16.867-2.175-1.037-1.69-.887.017v4.467h.67V4.956l1.07 1.723 1.071 1.724h.837V3.935h-.686v3.38zm-8.098-1.02v-.67h-3.531v.67h1.389v3.798h.736V4.604zM60.305 4.27a1.56 1.56 0 0 0-.988-.335l-1.757-.033v4.467h1.908c.418 0 .77-.134 1.02-.368.252-.234.402-.552.402-.92 0-.234-.067-.452-.184-.636a1.2 1.2 0 0 0-.519-.435c.168-.084.285-.218.385-.368.084-.15.134-.318.134-.519 0-.335-.15-.636-.401-.853m15.83 3.062c.284.301.685.485 1.137.485s.853-.167 1.155-.485c.284-.285.468-.703.468-1.171 0-.452-.184-.87-.468-1.172a1.62 1.62 0 0 0-1.155-.485 1.58 1.58 0 0 0-1.138.485c-.284.285-.468.72-.468 1.172s.184.87.468 1.17m-13.237 0c.285.301.686.485 1.138.485s.853-.167 1.155-.485c.284-.285.468-.703.468-1.171 0-.452-.184-.87-.468-1.172a1.62 1.62 0 0 0-1.155-.485 1.58 1.58 0 0 0-1.138.485c-.284.285-.468.72-.468 1.172s.184.87.468 1.17m-2.962.217a.68.68 0 0 1-.502.201l-1.154-.017V6.428h1.154c.201 0 .369.067.503.184.133.117.2.285.2.469a.67.67 0 0 1-.2.468m-.15-1.907a.66.66 0 0 1-.469.184l-1.037-.017V4.554h1.037c.184 0 .352.067.469.184a.62.62 0 0 1 .184.452.62.62 0 0 1-.184.452" clip-rule="evenodd"/>
  </g>
  <defs>
    <clipPath id="a">
      <path fill="#fff" d="M0 0h101v28H0z"/>
    </clipPath>
  </defs>
</svg>