<svg xmlns="http://www.w3.org/2000/svg" width="123" height="28" fill="none">
  <path fill="#fff" d="m114.282 6.428-1.609 3.663h-4.661v11.583h-3.664V10.112h-3.97v11.562h-3.705l-6.27-9.058v9.058h-3.705V6.448h3.705l6.27 8.753V6.448h17.609zM78.047 6c4.458 0 8.082 3.583 8.082 8s-3.624 8-8.082 8-8.082-3.583-8.082-8c0-4.398 3.624-8 8.082-8m0 12.295c2.381 0 4.336-1.933 4.336-4.295s-1.934-4.295-4.336-4.295c-2.382 0-4.336 1.934-4.336 4.295 0 2.362 1.954 4.295 4.336 4.295m-7.837 3.318h-4.336l-3.298-4.865h-1.954v4.865h-3.705V10.051h-8.692v3.033h7.124l-1.587 3.664h-5.435l-.102 4.865H44.52V6.59l-1.466 3.461h-5.333v11.562h-3.705V10.051H30.23v4.926c0 4.621-2.626 6.88-6.759 6.88-4.132 0-6.656-2.28-6.656-6.778V6.366h3.705v8.632c0 2.239 1.14 3.4 2.992 3.4s3.013-1.1 3.013-3.278V6.387H63.94c1.954 0 3.481.55 4.478 1.547.855.855 1.323 2.036 1.323 3.48v.042c0 2.463-1.343 4.01-3.297 4.722zm-4.153-9.934c0-1.18-.794-1.791-2.077-1.791h-3.378v3.583h3.42c1.282 0 2.015-.713 2.015-1.771v-.02zM8.082 6c4.458 0 8.082 3.583 8.082 8s-3.624 8-8.082 8S0 18.417 0 14c0-4.398 3.624-8 8.082-8m0 12.295c2.381 0 4.336-1.933 4.336-4.295s-1.954-4.295-4.336-4.295S3.746 11.639 3.746 14c0 2.362 1.934 4.295 4.336 4.295"/>
  <mask id="a" width="13" height="16" x="110" y="6" maskUnits="userSpaceOnUse" style="mask-type:luminance">
    <path fill="#fff" d="m117.14 6.445-6.636 15.246h4.987l6.636-15.247z"/>
  </mask>
  <g mask="url(#a)">
    <path fill="#fff" d="M102.875 14.073 116.311.638l13.434 13.435-13.434 13.435z"/>
  </g>
</svg>