<svg xmlns="http://www.w3.org/2000/svg" width="92" height="28" fill="none">
  <g clip-path="url(#a)">
    <path fill="#fff" fill-rule="evenodd" d="M0 5.766c0-.91.737-1.647 1.647-1.647h6.587c.91 0 1.647.737 1.647 1.647v1.647a.823.823 0 0 1-.824.823H.823A.823.823 0 0 1 0 7.413zm9.88 14.821c0-.454.37-.823.824-.823h8.234c.455 0 .824.369.824.823v1.647c0 .91-.738 1.647-1.647 1.647h-6.587c-.91 0-1.647-.737-1.647-1.647zM.824 10.295a.823.823 0 0 0-.823.823v4.94c0 .91.737 1.647 1.647 1.647h17.291a.823.823 0 0 0 .824-.823v-4.94c0-.91-.738-1.647-1.647-1.647zm29.912 5.962h1.904l3.57 5.977h4.328l-3.956-6.385c2.175-.748 3.444-2.424 3.444-4.849 0-3.399-2.379-5.234-6.208-5.234H26.95v16.468h3.784zm0-3.082V8.961h2.878c1.79 0 2.696.77 2.696 2.107 0 1.314-.906 2.107-2.696 2.107zm21.714 5.62c-.884 2.288-3.06 3.49-5.438 3.49-3.603 0-6.05-2.516-6.05-6.232 0-3.535 2.538-6.208 5.982-6.208 3.625 0 5.596 2.673 5.596 6.05v.951H44.45c.25 1.631 1.224 2.56 2.606 2.56 1.133 0 2.017-.543 2.356-1.586zm-3.49-4.17c-.023-1.064-.725-1.97-2.062-1.97-1.11 0-1.971.656-2.334 1.97zm5.635 4.316c0 2.447 1.292 3.308 3.875 3.308.86 0 1.54-.068 2.175-.159v-2.968a8 8 0 0 1-1.042.068c-.906 0-1.428-.181-1.428-1.279v-4.826h2.334v-2.991h-2.334V6.786h-3.58v3.308h-1.518v2.99h1.518zM67.61 9.794c3.512 0 5.982 2.516 5.982 6.232s-2.47 6.208-5.982 6.208c-3.535 0-5.982-2.492-5.982-6.208s2.447-6.232 5.982-6.232m0 2.969c-1.45 0-2.38 1.178-2.38 3.263s.93 3.262 2.38 3.262 2.379-1.178 2.379-3.262-.929-3.263-2.38-3.263m19.038 3.263c0-3.716-2.47-6.232-5.982-6.232-3.534 0-5.981 2.516-5.981 6.232s2.447 6.208 5.981 6.208c3.513 0 5.982-2.492 5.982-6.208m-8.36 0c0-2.085.928-3.263 2.378-3.263s2.38 1.178 2.38 3.263-.93 3.262-2.38 3.262-2.379-1.178-2.379-3.262m10.088-10.26H92v16.468h-3.625z" clip-rule="evenodd"/>
  </g>
  <defs>
    <clipPath id="a">
      <path fill="#fff" d="M0 0h92v28H0z"/>
    </clipPath>
  </defs>
</svg>