<svg xmlns="http://www.w3.org/2000/svg" width="100" height="28" fill="none">
  <path fill="#fff" d="M49.988 8.96c-3.898 0-6.708 2.418-6.708 6.047s3.163 6.047 7.06 6.047c2.355 0 4.431-.887 5.716-2.382l-2.7-1.485c-.713.742-1.797 1.176-3.015 1.176-1.691 0-3.128-.84-3.661-2.184h9.892c.078-.376.123-.766.123-1.176 0-3.625-2.81-6.044-6.707-6.044m-3.34 4.87c.441-1.34 1.649-2.183 3.336-2.183 1.691 0 2.899.843 3.336 2.184zm41.355-4.87c-3.898 0-6.708 2.418-6.708 6.047s3.163 6.047 7.06 6.047c2.356 0 4.432-.887 5.717-2.382l-2.701-1.485c-.713.742-1.797 1.176-3.015 1.176-1.691 0-3.128-.84-3.661-2.184h9.892c.078-.376.124-.766.124-1.176 0-3.625-2.81-6.044-6.708-6.044m-3.336 4.87c.44-1.34 1.648-2.183 3.336-2.183 1.69 0 2.898.843 3.336 2.184zm-13.78 1.177c0 2.015 1.385 3.36 3.531 3.36 1.454 0 2.545-.629 3.107-1.654l2.711 1.489c-1.123 1.78-3.227 2.852-5.818 2.852-3.901 0-6.708-2.419-6.708-6.047 0-3.629 2.81-6.048 6.708-6.048 2.591 0 4.692 1.072 5.818 2.853L77.525 13.3c-.562-1.025-1.653-1.653-3.107-1.653-2.143 0-3.53 1.344-3.53 3.36m29.119-9.743v15.454h-3.177V5.264zM13.24 3.584l13.045 21.501H.195zm32.614 1.68L36.07 21.39 26.288 5.264h3.668l6.115 10.079 6.115-10.08zM66.65 9.295v3.256a4.2 4.2 0 0 0-1.13-.165c-2.05 0-3.53 1.344-3.53 3.36v4.972h-3.177V9.295h3.177v3.091c0-1.706 2.087-3.09 4.66-3.09"/>
</svg>