<svg xmlns="http://www.w3.org/2000/svg" width="146" height="28" fill="none">
  <mask id="a" width="146" height="27" x="0" y="1" maskUnits="userSpaceOnUse" style="mask-type:luminance">
    <path fill="#fff" d="M0 1h145.903v26.39H0z"/>
  </mask>
  <g fill="#fff" fill-rule="evenodd" clip-rule="evenodd" mask="url(#a)">
    <path stroke="#fff" stroke-width=".4" d="M141.432 9.32h-3.104V8.255h7.501V9.32h-3.104v9.616h-1.293V9.319zm-10.634-1.055h6.217V9.32h-4.923v3.628h3.966v1.065h-3.966v3.867h5.191v1.065h-6.485zm-12.76 0h1.8l3.296 8.319 3.19-8.32h1.791v10.672h-1.293V9.953l-3.535 8.983h-.402l-3.66-8.983v8.983h-1.187zm-12.617 5.412v-.125c0-3.032 2.117-5.422 5.249-5.422 3.133 0 5.202 2.39 5.202 5.393v.125c0 3.013-2.069 5.432-5.173 5.432-3.142 0-5.278-2.419-5.278-5.403Zm9.11-.048v-.115c0-2.39-1.399-4.338-3.861-4.338-2.471 0-3.908 1.823-3.908 4.367v.115c0 2.59 1.715 4.347 3.937 4.347 2.376 0 3.832-1.795 3.832-4.376Zm-12.636-5.364h1.293v10.68h-1.293zm-9.35 0h3.2c1.983 0 3.43.661 3.43 2.763v.058c0 .979-.384 1.842-1.61 2.255 1.552.374 2.137 1.17 2.137 2.562v.058c0 2.015-1.37 2.984-3.507 2.984h-3.65zm3.2 4.663c1.57 0 2.165-.566 2.165-1.88v-.058c0-1.22-.7-1.709-2.194-1.709H93.81v3.647zm.422 5c1.552 0 2.26-.681 2.26-1.986v-.058c0-1.315-.728-1.939-2.443-1.939H93.81v3.983zM79.229 8.264h3.21c2.04 0 3.726.836 3.726 2.975v.058c0 1.766-1.178 2.629-2.644 2.917l3.266 4.731h-1.446l-3.18-4.645h-1.639v4.645H79.23V8.265Zm3.295 5c1.524 0 2.338-.652 2.338-1.967v-.058c0-1.449-.89-1.929-2.338-1.929h-2.002v3.954zm-11.726-5h6.218V9.33h-4.924v3.627h3.966v1.056h-3.966v3.867h5.192v1.065h-6.486zm-12.77 0h1.81l3.296 8.32 3.19-8.32h1.792v10.681h-1.303V9.954l-3.535 8.991h-.402l-3.65-8.991v8.991H58.03zm-12.76 0h1.81l3.296 8.32 3.19-8.32h1.791v10.681h-1.302V9.954l-3.535 8.991h-.402l-3.65-8.991v8.991h-1.198zm-4.053 0h1.303v10.672h-1.302zm-9.866 10.47 6.035-9.404h-5.5V8.265h7.291v.2l-5.872 9.377h5.786v1.103h-7.741v-.211Z"/>
    <path d="M13.146 27.323C5.884 27.323.012 21.45.012 14.166c0-7.274 5.872-13.155 13.134-13.155 7.27 0 13.143 5.882 13.143 13.156 0 7.284-5.872 13.156-13.143 13.156m-8.9-4.72 8.87-16.872-.085-.009c-4.378 0-7.99 3.397-8.354 7.696V5.367h17.014a12.2 12.2 0 0 0-8.545-3.474C5.806 1.893.893 6.816.893 14.167c0 3.273 1.274 6.238 3.353 8.435m.22.22a12.19 12.19 0 0 0 8.68 3.628c6.773 0 12.262-5.5 12.262-12.284 0-3.34-1.341-6.372-3.497-8.589l-8.794 16.899c4.196-.048 7.645-3.186 8.2-7.245v7.59H4.466z"/>
  </g>
</svg>